<svg xmlns="http://www.w3.org/2000/svg" width="32" height="29" viewBox="0 0 32 29" fill="none">
<path d="M30.8599 7.01611C30.5139 5.90423 30.1186 4.79234 29.6492 3.72988C29.6492 3.72988 29.6492 3.72988 29.6492 3.70517C29.4515 2.79095 29.1797 1.85203 28.5373 1.16019C28.0184 0.591899 27.2771 0.221271 26.5112 0.171854C25.7452 0.122437 24.9545 0.344814 24.3615 0.838984C24.1639 0.987235 23.9909 1.16019 23.8179 1.33315C23.1261 1.67907 22.1378 2.02499 21.3224 1.82732C21.2236 1.7532 21.1247 1.70378 21.0259 1.62966C20.7047 1.38257 20.4329 1.11078 20.1117 0.8884C19.914 0.641316 19.7163 0.418939 19.4692 0.24598C18.901 -0.124648 18.135 -0.0505223 17.5667 0.295397C17.0231 0.616607 16.6278 1.13549 16.3313 1.67907C15.4912 3.01333 15.4171 5.06414 15.1206 6.4231C14.3546 9.95642 12.4026 13.1685 9.85764 15.7629C7.33738 18.3573 4.24881 20.3587 1.03671 21.9895C0.69079 22.1624 0.320163 22.3601 0.122495 22.706C-0.099881 23.1013 -0.00104553 23.6202 0.270748 24.0156C0.517833 24.3862 0.913166 24.6827 1.28379 24.9298C2.07447 25.4981 2.86514 26.0416 3.68052 26.6099C4.52061 27.2029 5.3607 27.7712 6.34904 28.043C7.68329 28.4137 9.11639 28.1419 10.4506 27.796C13.1192 27.1041 28.0678 19.8645 28.5867 19.4692C29.6244 18.6785 30.4151 17.5913 30.934 16.4053C32.2435 13.4403 31.7741 10.0305 30.8599 7.01611Z" fill="#7B9731"/>
<path d="M15.9356 22.2132C15.9109 22.2379 15.8861 22.2874 15.8614 22.3121C15.7379 22.5097 15.6391 22.7074 15.5649 22.9051C15.7379 23.2016 15.9109 23.4734 16.1085 23.7452C16.1579 23.8193 16.2815 23.8687 16.3803 23.7946C16.578 23.6463 16.6274 23.3498 16.7015 23.1274C16.8004 22.8556 16.8745 22.5591 16.9486 22.2874C17.0227 22.0156 17.1216 21.7191 17.1957 21.4473C17.0969 21.472 16.9733 21.4967 16.8745 21.5214C16.4792 21.6449 16.1579 21.892 15.9356 22.2132Z" fill="white"/>
<path d="M17.2703 21.4205C17.295 21.5441 17.3444 21.6182 17.3938 21.717C17.4679 21.89 17.5668 22.0629 17.6656 22.2112C17.8633 22.5324 18.0609 22.8536 18.2833 23.1501C18.3327 23.2242 18.4563 23.2736 18.5551 23.1995C18.7528 23.0513 18.8022 22.7548 18.8763 22.5324C18.9751 22.2606 19.0493 21.9641 19.1234 21.6923C19.1481 21.6182 19.1728 21.5441 19.1975 21.4699C18.8516 21.4452 18.481 21.3958 18.1103 21.3711C17.8138 21.3958 17.5421 21.3958 17.2703 21.4205Z" fill="white"/>
<path d="M25.9429 17.2459C25.6958 17.2459 25.4487 17.1965 25.2016 17.1718C25.1275 17.1718 25.0534 17.1471 24.9545 17.1471C24.7816 17.1224 24.5839 17.1224 24.4109 17.1718C24.4109 17.1965 24.4109 17.2212 24.3862 17.2459C24.6086 17.6907 25.4981 19.1485 25.7699 19.3956C25.8687 19.4944 25.9676 19.3956 25.9923 19.272C26.1158 18.6049 26.2394 17.9131 26.3629 17.2459C26.2394 17.2459 26.0911 17.2459 25.9429 17.2459Z" fill="white"/>
<path d="M24.1389 17.2473C23.9166 17.3461 23.7436 17.5191 23.5706 17.7167L23.5459 17.7414C23.2494 18.0874 23.0765 18.5074 22.9282 18.9274L22.9529 18.9522C23.2247 19.2981 23.4965 19.5946 23.8177 19.8911C23.9166 19.9899 24.0154 19.8911 24.0401 19.7675C24.1636 19.0757 24.2872 17.9885 24.4107 17.2226C24.386 17.1979 24.386 17.1731 24.386 17.1484C24.2872 17.1731 24.2131 17.1979 24.1389 17.2473Z" fill="white"/>
<path d="M18.7524 23.4709C17.2452 24.1875 15.7133 24.904 14.206 25.6206C12.7977 26.2877 11.3646 26.9301 9.85734 27.3254C9.04196 27.5478 7.97949 27.869 7.11469 27.8937C6.76877 27.8937 5.53335 27.6219 4.74268 27.3254C5.23685 27.6219 5.78043 27.8937 6.34873 28.042C7.68299 28.4126 9.11608 28.1408 10.4503 27.7949C12.9212 27.1525 26.0414 20.8518 28.2652 19.6411C28.3146 19.5176 21.8162 22.0378 18.7524 23.4709Z" fill="#61762A"/>
<path d="M28.3641 14.5046C28.3394 14.3563 28.3147 14.2328 28.2653 14.0846C28.2159 13.961 28.1171 13.8622 28.0429 13.7633C27.9688 13.6645 27.8453 13.7881 27.87 13.8622C27.8947 13.9857 27.9194 14.134 27.9441 14.2575C28.0429 14.6529 28.0429 15.0729 27.9194 15.4682C27.6723 16.2342 26.9558 16.7778 26.1404 16.8272C25.8439 16.8519 25.5474 16.7778 25.2509 16.7531C24.6826 16.6789 24.1143 16.7037 23.6448 17.0743C22.7306 17.7908 22.5824 18.9768 22.1129 19.9158C21.4952 21.1018 20.6057 21.2006 19.2714 21.1018C18.456 21.0276 17.5665 20.8794 16.7511 21.1265C15.9605 21.3736 15.5404 21.9171 15.2192 22.6831C14.8486 23.5726 14.6509 24.4868 13.6873 24.981C12.8966 25.3763 11.8589 25.3763 10.8211 25.5987C9.61039 25.8458 9.23976 26.3153 8.67147 26.6859C7.41133 27.526 5.87941 27.3036 4.42161 26.933C4.24865 26.8836 4.1004 26.8588 3.95215 26.8094C4.29807 27.0318 4.61927 27.2542 4.96519 27.4766C8.52321 28.1931 8.94326 26.6859 10.2034 26.1917C11.6118 25.6481 13.3414 25.9941 14.478 24.9316C15.6393 23.8197 15.2686 21.7936 17.1712 21.4477C18.4066 21.2253 19.7656 21.7936 21.001 21.3983C21.4705 21.25 21.8658 20.9535 22.1623 20.5582C22.78 19.6934 22.8541 18.5568 23.5213 17.7167C24.4108 16.6048 25.2509 17.3955 26.3628 17.1978C27.6723 17.0002 28.5618 15.7894 28.3641 14.5046Z" fill="#455156"/>
<path d="M18.6785 7.97884C20.0704 7.97884 21.1987 6.76198 21.1987 5.2609C21.1987 3.75983 20.0704 2.54297 18.6785 2.54297C17.2866 2.54297 16.1582 3.75983 16.1582 5.2609C16.1582 6.76198 17.2866 7.97884 18.6785 7.97884Z" fill="#61762A"/>
<path d="M18.7527 7.26127C20.0081 7.26127 21.0259 6.02228 21.0259 4.49391C21.0259 2.96555 20.0081 1.72656 18.7527 1.72656C17.4972 1.72656 16.4795 2.96555 16.4795 4.49391C16.4795 6.02228 17.4972 7.26127 18.7527 7.26127Z" fill="#F6E9BB"/>
<path d="M21.1001 3.50674C21.1001 3.45732 21.0754 3.4079 21.0507 3.38319C20.8777 2.93844 20.7048 2.49369 20.3836 2.14777C20.2353 1.9501 20.0376 1.80185 19.8153 1.67831C19.5929 1.55476 19.3705 1.48064 19.1234 1.45593C18.6292 1.3818 18.1351 1.45593 17.6903 1.6536C17.2456 1.87597 16.8749 2.22189 16.6526 2.64194C16.4055 3.06198 16.2325 4.32212 16.2572 4.2727C16.2819 4.24799 17.3691 3.30907 17.9868 3.06198C18.6787 2.79019 19.494 2.69135 20.2106 2.91373C20.4824 2.98786 21.1248 3.55615 21.1001 3.50674Z" fill="#3E571B"/>
<path d="M19.7408 4.78971C19.9728 4.78971 20.1609 4.5574 20.1609 4.27083C20.1609 3.98426 19.9728 3.75195 19.7408 3.75195C19.5089 3.75195 19.3208 3.98426 19.3208 4.27083C19.3208 4.5574 19.5089 4.78971 19.7408 4.78971Z" fill="#455156"/>
<path d="M19.9631 4.09924C19.9631 4.2722 19.889 4.39574 19.7901 4.39574C19.6913 4.39574 19.6172 4.2722 19.6172 4.09924C19.6172 3.92628 19.6913 3.80273 19.7901 3.80273C19.889 3.80273 19.9631 3.95099 19.9631 4.09924Z" fill="white"/>
<path d="M18.6537 6.32434C17.9866 6.02783 17.6407 5.33599 17.5665 4.64416C17.5418 4.4712 17.5418 4.29824 17.443 4.14999C17.3442 4.00174 17.1465 3.92761 16.9983 4.00174C16.85 4.07586 16.8006 4.24882 16.7759 4.42178C16.7759 4.52061 16.7759 4.61945 16.8253 4.71828C16.8253 4.81712 16.8253 4.91595 16.85 5.01478C16.8994 5.33599 16.9983 5.65721 17.1465 5.929C17.443 6.39846 17.9866 6.76909 18.5549 6.69496C18.6537 6.69496 18.7279 6.64555 18.7526 6.54671C18.7526 6.44788 18.7279 6.34904 18.6537 6.32434Z" fill="white"/>
<path d="M28.3397 5.18929C28.3397 5.06575 28.1915 4.94221 28.0185 4.99163C27.4255 5.13988 26.8078 5.26342 26.1901 5.31284C25.8689 5.33754 25.5724 5.36225 25.2512 5.36225C25.1029 5.36225 24.93 5.36225 24.7817 5.36225C24.6087 5.36225 24.4358 5.33754 24.2875 5.36225C24.1887 5.38696 24.1393 5.43638 24.1393 5.4858C24.0404 5.46109 23.8922 5.55992 23.9663 5.65875C24.3122 6.17763 25.0535 6.3753 25.7206 6.3753C26.116 6.3753 26.4866 6.35059 26.8819 6.30118C27.2278 6.25176 27.5985 6.17763 27.8703 5.97997C28.1421 5.80701 28.3644 5.5105 28.3397 5.18929Z" fill="#61762A"/>
<path d="M28.3145 4.89113C28.2651 4.7923 28.1663 4.74288 28.0427 4.76759C27.8698 4.81701 27.7215 4.86642 27.5486 4.91584C27.3756 4.96526 27.2273 5.01467 27.0544 5.03938C26.7332 5.11351 26.412 5.16292 26.0907 5.21234C25.8684 5.23705 25.6213 5.26176 25.3989 5.26176C25.5719 5.18763 25.7201 5.11351 25.8931 5.03938C26.3873 4.7923 26.9061 4.4958 27.2273 4.05104C27.3262 3.9275 27.4003 3.80396 27.4744 3.68041C27.5486 3.55687 27.598 3.43333 27.598 3.28508C27.598 3.23566 27.5486 3.23566 27.5238 3.26037C27.4003 3.3592 27.2768 3.48275 27.1779 3.60629C27.0791 3.70512 26.9555 3.80396 26.832 3.90279C26.5849 4.10046 26.3378 4.29813 26.0413 4.47109C25.3989 4.84171 24.7071 5.06409 24.0152 5.28647C23.7682 5.36059 23.8176 5.73122 24.0894 5.75593C24.7812 5.80535 25.473 5.78064 26.1649 5.70651C26.5108 5.65709 26.8567 5.60768 27.2026 5.53355C27.5486 5.45943 27.8945 5.36059 28.2157 5.23705C28.3392 5.11351 28.3639 4.98997 28.3145 4.89113Z" fill="#455156"/>
<path d="M11.4393 18.9497C10.7722 18.5791 10.0804 18.505 9.61091 18.5297H9.5862C9.06732 18.5544 8.4002 18.925 8.37549 19.2957C8.37549 19.4933 8.49903 19.6169 8.6967 19.6663C8.91907 19.7157 9.11674 19.7898 9.33912 19.864C9.75916 20.0369 10.1545 20.2346 10.5251 20.4817C10.871 20.704 11.1923 20.9758 11.6123 21.0747C11.9582 21.1488 12.4277 21.0747 12.5759 20.704C12.7242 20.3581 12.5018 19.9134 12.2794 19.6416C12.0571 19.3451 11.7358 19.1227 11.4393 18.9497Z" fill="#56771C"/>
<path d="M7.8811 21.2743C7.38693 21.0025 6.86805 20.9531 6.52213 20.9531H6.49742C6.10208 20.9778 5.60791 21.2496 5.60791 21.5214C5.60791 21.6697 5.70674 21.7685 5.855 21.7932C6.02795 21.8179 6.1762 21.892 6.32446 21.9415C6.64567 22.065 6.91746 22.2133 7.21396 22.4109C7.46105 22.5839 7.70814 22.7816 8.02935 22.8557C8.27643 22.9051 8.64706 22.8557 8.74589 22.5839C8.84473 22.3368 8.69648 21.9909 8.52352 21.7932C8.35056 21.5708 8.10347 21.3979 7.8811 21.2743Z" fill="#56771C"/>
<path d="M4.57022 23.1748C4.1996 22.9772 3.80426 22.9277 3.53246 22.9277H3.50775C3.21125 22.9524 2.84063 23.1501 2.81592 23.3725C2.81592 23.496 2.89004 23.5454 2.98887 23.5702C3.11242 23.5949 3.23596 23.6443 3.3595 23.6937C3.60659 23.7925 3.82896 23.8914 4.02663 24.0396C4.2243 24.1632 4.39726 24.3114 4.64435 24.3855C4.84201 24.435 5.11381 24.3855 5.18794 24.1879C5.26206 23.9902 5.13852 23.7431 5.01497 23.5949C4.91614 23.3972 4.74318 23.2737 4.57022 23.1748Z" fill="#56771C"/>
<path d="M15.0219 16.2327C14.2312 15.788 13.4405 15.7139 12.897 15.7386H12.8722C12.2545 15.7633 11.4886 16.208 11.4639 16.6281C11.4639 16.8505 11.6121 16.9987 11.8345 17.0728C12.1063 17.1223 12.3287 17.2211 12.5757 17.2952C13.0699 17.4929 13.5394 17.74 13.9594 18.0118C14.3548 18.2836 14.7501 18.5801 15.2196 18.7036C15.6149 18.7777 16.1832 18.7036 16.3561 18.2588C16.5291 17.8635 16.282 17.3446 16.0102 17.0234C15.7384 16.6775 15.3678 16.4304 15.0219 16.2327Z" fill="#56771C"/>
<path d="M18.3823 12.2053C17.4186 11.7606 16.455 11.7359 15.8126 11.8347H15.7879C15.0713 11.9335 14.2065 12.5265 14.2065 13.0207C14.2313 13.2925 14.4042 13.4408 14.7007 13.4902C15.0219 13.5396 15.2937 13.6137 15.6149 13.6878C16.2079 13.8855 16.7762 14.1079 17.3198 14.4044C17.814 14.6762 18.3082 15.0221 18.9012 15.0962C19.3953 15.1704 20.0377 14.9974 20.186 14.4785C20.359 13.9844 19.9883 13.3913 19.6671 13.0454C19.2718 12.6995 18.8023 12.4277 18.3823 12.2053Z" fill="#56771C"/>
</svg>